<?xml version="1.0" encoding="utf-8"?>
<svg viewBox="20.79 25.33 26.68 32.002" xmlns="http://www.w3.org/2000/svg">
  <path class="cls-1" d="M10.68,3a4.82,4.82,0,0,1,5,4.57v8.15a4.82,4.82,0,0,1-5,4.57,4.83,4.83,0,0,1-5-4.57V7.57a4.83,4.83,0,0,1,5-4.57m0-3a7.82,7.82,0,0,0-8,7.57v8.15a7.82,7.82,0,0,0,8,7.57,7.81,7.81,0,0,0,8-7.57V7.57a7.81,7.81,0,0,0-8-7.57Z" transform="matrix(1, 0, 0, 1, 18.109751, 25.332661)" style="fill: rgb(179, 255, 91);"/>
  <rect class="cls-1" x="12.72" y="6.2" width="16.64" height="25.8" rx="8.28" transform="matrix(1, 0, 0, 1, 18.109751, 25.332661)" style="fill: rgb(179, 255, 91);"/>
</svg>