<?xml version="1.0" encoding="utf-8"?>
<svg viewBox="103.041 184.45 31.94 31.9" xmlns="http://www.w3.org/2000/svg">
  <circle class="cls-1" cx="3.68" cy="28.27" r="3.68" transform="matrix(1, 0, 0, 1, 103.041139, 184.400683)" style="fill: rgb(179, 255, 91);"/>
  <path class="cls-1" d="M4,.05A3.68,3.68,0,1,0,7.63,3.73,3.68,3.68,0,0,0,4,.05Z" transform="matrix(1, 0, 0, 1, 103.041139, 184.400683)" style="fill: rgb(179, 255, 91);"/>
  <path class="cls-1" d="M28.32,12.67a3.64,3.64,0,0,0-2.28.81h0a4.34,4.34,0,0,0-.53.52l0,0a3.56,3.56,0,0,0-.4.61l0,0a3.44,3.44,0,0,0-.28.69v0a3.58,3.58,0,0,0-.15,1s0,.07,0,.11h0a3.25,3.25,0,0,0,.11.77.43.43,0,0,0,0,.05A3.94,3.94,0,0,0,25,18a.05.05,0,0,1,0,0,3.94,3.94,0,0,0,.39.61h0a3.8,3.8,0,0,0,.52.54h0a3.62,3.62,0,0,0,2.35.87,3.68,3.68,0,0,0,0-7.36Z" transform="matrix(1, 0, 0, 1, 103.041139, 184.400683)" style="fill: rgb(179, 255, 91);"/>
  <path class="cls-1" d="M9,8.05,21.86,14.7A6.66,6.66,0,0,1,23.25,12L10.41,5.38A6.76,6.76,0,0,1,9,8.05Z" transform="matrix(1, 0, 0, 1, 103.041139, 184.400683)" style="fill: rgb(179, 255, 91);"/>
  <path class="cls-1" d="M5.26,21.79l.12-11.53A6.74,6.74,0,0,1,4,10.42a6.26,6.26,0,0,1-1.57-.21L2.25,21.74a6.74,6.74,0,0,1,1.43-.16A6.34,6.34,0,0,1,5.26,21.79Z" transform="matrix(1, 0, 0, 1, 103.041139, 184.400683)" style="fill: rgb(179, 255, 91);"/>
  <path class="cls-1" d="M8.86,24.09a6.64,6.64,0,0,1,1.33,2.7l13-6.26a6.64,6.64,0,0,1-1.33-2.7Z" transform="matrix(1, 0, 0, 1, 103.041139, 184.400683)" style="fill: rgb(179, 255, 91);"/>
</svg>