<?xml version="1.0" encoding="utf-8"?>
<svg viewBox="114.373 38.45 32 31.962" xmlns="http://www.w3.org/2000/svg">
  <path class="cls-1" d="M16,14.49c10.47,0,14.49-4.15,14.82-4.51a16,16,0,0,0-29.75.28l0,0S5.09,14.49,16,14.49ZM16,2V12.49C9,12.48,5.22,10.68,3.55,9.6A13.88,13.88,0,0,1,16,2Z" transform="matrix(1, 0, 0, 1, 114.373201, 38.438622)" style="fill: rgb(179, 255, 91);"/>
  <path class="cls-1" d="M31.75,13.16c-2.17,1.67-7,4.34-15.75,4.34S2.35,15,.21,13.39A16,16,0,1,0,32,16,16.48,16.48,0,0,0,31.75,13.16ZM16,30H16V19.5H16a30.87,30.87,0,0,0,14-2.9A14,14,0,0,1,16,30Z" transform="matrix(1, 0, 0, 1, 114.373201, 38.438622)" style="fill: rgb(179, 255, 91);"/>
</svg>