<?xml version="1.0" encoding="utf-8"?>
<svg viewBox="45.609 125.908 32.009 31.988" xmlns="http://www.w3.org/2000/svg">
  <path class="cls-1" d="M 61.618 140.389 C 72.088 140.389 76.108 136.239 76.438 135.879 C 71.795 124.471 56.543 122.367 48.985 132.092 C 48.024 133.328 47.25 134.698 46.688 136.159 L 46.688 136.159 C 46.688 136.159 50.708 140.389 61.618 140.389 Z M 61.618 127.899 L 61.618 138.389 C 54.618 138.379 50.838 136.579 49.168 135.499 C 51.545 130.813 56.364 127.872 61.618 127.899 Z" style="fill: rgb(48, 127, 52);"/>
  <path class="cls-1" d="M 77.368 139.059 C 75.198 140.729 70.368 143.399 61.618 143.399 C 52.868 143.399 47.968 140.899 45.828 139.289 C 43.839 151.444 55.754 161.194 67.275 156.839 C 73.49 154.489 77.607 148.543 77.618 141.899 C 77.617 140.947 77.533 139.997 77.368 139.059 Z M 61.618 155.899 L 61.618 155.899 L 61.618 145.399 L 61.618 145.399 C 66.447 145.541 71.242 144.548 75.618 142.499 C 75.296 149.996 69.121 155.906 61.618 155.899 Z" style="fill: rgb(48, 127, 52);"/>
</svg>