<?xml version="1.0" encoding="utf-8"?>
<svg viewBox="19.877 50.238 32 21.39" xmlns="http://www.w3.org/2000/svg">
  <polygon class="cls-1" points="51.877 71.578 43.497 68.258 43.497 54.638 51.877 50.238 51.877 71.578" style="fill: rgb(15, 110, 204);"/>
  <circle class="cls-1" cx="34.317" cy="64.628" r="3.28" style="fill: rgb(15, 110, 204);"/>
  <path class="cls-1" d="M 39.587 50.238 L 21.497 50.238 C 20.585 50.243 19.855 50.996 19.877 51.908 L 19.877 70.008 C 19.883 70.9 20.605 71.623 21.497 71.628 L 39.587 71.628 C 40.482 71.628 41.207 70.903 41.207 70.008 L 41.207 51.908 C 41.236 50.994 40.502 50.238 39.587 50.238 Z M 25.707 52.748 C 28.232 52.748 29.81 55.481 28.548 57.668 C 27.285 59.855 24.129 59.855 22.867 57.668 C 22.579 57.169 22.427 56.604 22.427 56.028 C 22.427 54.216 23.896 52.748 25.707 52.748 Z M 39.207 69.568 L 21.877 69.568 L 21.877 69.518 L 39.147 52.248 L 39.207 52.248 Z" style="fill: rgb(15, 110, 204);"/>
</svg>