<?xml version="1.0" encoding="utf-8"?>
<svg viewBox="16.777 120.233 32.032 32.01" xmlns="http://www.w3.org/2000/svg">
  <path class="cls-1" d="M24,11.07a1.52,1.52,0,0,1-1-2.64l3-2.71A1.51,1.51,0,1,1,28,8l-3,2.72A1.51,1.51,0,0,1,24,11.07Z" transform="matrix(1, 0, 0, 1, 16.797581, 120.233209)" style="fill: rgb(15, 110, 204);"/>
  <path class="cls-1" d="M15.91,18.42a1.51,1.51,0,0,1-1-2.63L19,12.11a1.51,1.51,0,0,1,2,2.24L16.93,18A1.53,1.53,0,0,1,15.91,18.42Z" transform="matrix(1, 0, 0, 1, 16.797581, 120.233209)" style="fill: rgb(15, 110, 204);"/>
  <path class="cls-1" d="M8.87,24.81a1.47,1.47,0,0,1-1.12-.49,1.51,1.51,0,0,1,.1-2.14l3-2.71a1.51,1.51,0,1,1,2,2.24l-3,2.71A1.51,1.51,0,0,1,8.87,24.81Z" transform="matrix(1, 0, 0, 1, 16.797581, 120.233209)" style="fill: rgb(15, 110, 204);"/>
  <path class="cls-2" d="M10.6,4.36,6.19.28A1,1,0,0,0,5.51,0a1,1,0,0,0-.68.26L.33,4.35A1,1,0,0,0,1,6.11H4V26.54a1.51,1.51,0,1,0,3,0V6.11H9.91a1,1,0,0,0,.69-1.75Z" transform="matrix(1, 0, 0, 1, 16.797581, 120.233209)" style="fill: rgb(47, 125, 51);"/>
  <path class="cls-3" d="M31.74,25.9l-4.08-4.5a1,1,0,0,0-.75-.33.92.92,0,0,0-.36.07,1,1,0,0,0-.65.94V25H5.57a1.51,1.51,0,1,0,0,3H25.9V31a1,1,0,0,0,.64.94,1,1,0,0,0,.37.07,1,1,0,0,0,.74-.32l4.08-4.41A1,1,0,0,0,31.74,25.9Z" transform="matrix(1, 0, 0, 1, 16.797581, 120.233209)" style="fill: rgb(176, 14, 15);"/>
</svg>