<svg xmlns="http://www.w3.org/2000/svg" viewBox="0 0 32 32"><defs><style>.cls-1{fill:#3a4a97;}</style></defs><g id="Laag_1" data-name="Laag 1"><path class="cls-1" d="M16.1,10.5A10.35,10.35,0,1,0,26.44,20.85,10.35,10.35,0,0,0,16.1,10.5Zm3.34,12.16H16a1,1,0,0,1-1-1V16a1,1,0,0,1,2,0v4.67h2.44a1,1,0,0,1,0,2Z"/><circle class="cls-1" cx="4.05" cy="6.82" r="4.05"/><path class="cls-1" d="M28,4.76a2.06,2.06,0,1,1-2.06,2.06A2.05,2.05,0,0,1,28,4.76m0-2A4.06,4.06,0,1,0,32,6.82,4.06,4.06,0,0,0,28,2.76Z"/><path class="cls-1" d="M22.76,4.31a1.06,1.06,0,0,1-.42-.09,14.92,14.92,0,0,0-12.5-.09,1,1,0,0,1-1.32-.51A1,1,0,0,1,9,2.3a17,17,0,0,1,14.14.09,1,1,0,0,1-.41,1.92Z"/><path class="cls-1" d="M16.1,10.5A10.35,10.35,0,1,0,26.44,20.85,10.35,10.35,0,0,0,16.1,10.5Zm3.34,12.16H16a1,1,0,0,1-1-1V16a1,1,0,0,1,2,0v4.67h2.44a1,1,0,0,1,0,2Z"/><circle class="cls-1" cx="4.05" cy="6.82" r="4.05"/><path class="cls-1" d="M28,4.76a2.06,2.06,0,1,1-2.06,2.06A2.05,2.05,0,0,1,28,4.76m0-2A4.06,4.06,0,1,0,32,6.82,4.06,4.06,0,0,0,28,2.76Z"/><path class="cls-1" d="M22.76,4.31a1.06,1.06,0,0,1-.42-.09,14.92,14.92,0,0,0-12.5-.09,1,1,0,0,1-1.32-.51A1,1,0,0,1,9,2.3a17,17,0,0,1,14.14.09,1,1,0,0,1-.41,1.92Z"/></g><g id="Laag_2" data-name="Laag 2"><path class="cls-1" d="M16.1,10.5A10.35,10.35,0,1,0,26.44,20.85,10.35,10.35,0,0,0,16.1,10.5Zm3.34,12.16H16a1,1,0,0,1-1-1V16a1,1,0,0,1,2,0v4.67h2.44a1,1,0,0,1,0,2Z"/><circle class="cls-1" cx="4.05" cy="6.82" r="4.05"/><path class="cls-1" d="M28,4.76a2.06,2.06,0,1,1-2.06,2.06A2.05,2.05,0,0,1,28,4.76m0-2A4.06,4.06,0,1,0,32,6.82,4.06,4.06,0,0,0,28,2.76Z"/><path class="cls-1" d="M22.76,4.31a1.06,1.06,0,0,1-.42-.09,14.92,14.92,0,0,0-12.5-.09,1,1,0,0,1-1.32-.51A1,1,0,0,1,9,2.3a17,17,0,0,1,14.14.09,1,1,0,0,1-.41,1.92Z"/></g></svg>